<?xml version="1.0" standalone="no"?>
<!DOCTYPE svg PUBLIC "-//W3C//DTD SVG 20010904//EN"
 "http://www.w3.org/TR/2001/REC-SVG-20010904/DTD/svg10.dtd">
<svg version="1.0" xmlns="http://www.w3.org/2000/svg"
 width="700.000000pt" height="700.000000pt" viewBox="0 0 700.000000 700.000000"
 preserveAspectRatio="xMidYMid meet">
<metadata>
Created by potrace 1.11, written by Peter Selinger 2001-2013
</metadata>
<g transform="translate(0.000000,700.000000) scale(0.100000,-0.100000)"
fill="#000000" stroke="none">
<path d="M3270 6279 c-926 -76 -1761 -616 -2213 -1434 -162 -294 -270 -622
-323 -990 -26 -179 -24 -553 4 -735 77 -505 247 -916 537 -1300 624 -827 1667
-1242 2686 -1069 1088 184 1962 987 2239 2056 190 730 66 1536 -333 2169 -383
609 -981 1046 -1671 1224 -297 76 -620 104 -926 79z m620 -74 c322 -50 599
-140 869 -281 775 -404 1312 -1156 1442 -2018 38 -255 36 -605 -7 -855 -101
-602 -407 -1166 -849 -1564 -505 -455 -1096 -695 -1761 -714 -327 -9 -553 20
-884 114 -30 8 -118 40 -195 70 -534 207 -991 583 -1310 1077 -202 314 -343
697 -402 1091 -25 169 -25 581 0 750 76 506 269 951 583 1345 88 109 295 316
404 404 413 331 914 538 1440 595 129 14 546 6 670 -14z"/>
<path d="M1947 5063 c-4 -3 -7 -14 -7 -23 0 -14 15 -18 92 -24 111 -7 147 -25
167 -82 11 -32 14 -240 12 -1243 -1 -1126 -2 -1207 -18 -1240 -26 -53 -70 -71
-171 -71 -81 0 -83 -1 -80 -22 l3 -23 762 -3 761 -2 104 -103 c121 -120 221
-184 365 -233 135 -46 222 -57 388 -51 160 6 222 20 344 79 69 33 101 57 176
132 149 148 204 286 205 512 0 234 -83 414 -262 569 -98 85 -224 161 -468 284
-398 202 -525 313 -586 516 -27 89 -24 258 5 345 86 250 338 384 614 325 192
-41 335 -200 398 -445 19 -73 22 -114 23 -285 1 -181 3 -200 19 -203 11 -2 17
3 17 17 0 67 91 283 158 375 l35 48 -18 55 c-32 95 -103 203 -189 289 -66 66
-99 90 -176 128 -126 62 -210 79 -385 80 -115 0 -154 -4 -218 -22 -338 -96
-530 -381 -489 -723 15 -121 48 -211 107 -293 88 -123 285 -264 530 -379 390
-183 537 -292 619 -459 128 -260 92 -564 -88 -744 -109 -108 -236 -156 -416
-157 -185 0 -321 54 -445 179 -115 116 -180 250 -210 438 -17 104 -19 320 -5
416 6 36 13 83 16 106 5 31 3 42 -9 47 -11 4 -21 -21 -47 -116 -72 -268 -168
-465 -277 -568 -112 -106 -129 -109 -540 -109 l-333 0 0 1268 c0 1186 1 1269
18 1302 23 47 59 62 164 68 84 5 89 6 86 26 -3 21 -5 21 -374 24 -204 1 -373
-1 -377 -5z"/>
</g>
</svg>
